:SAMPLES-PER-SECOND 30
:FULLY-SPECIFIED
:DEGREES
47
root  -13.6768 35.7773 -2.24196 170.924 82.3509 -177.38
RightUpLeg  -21.0681 2.11755 4.14725
RightLeg  29.3415 -11.4982 -12.6248
RightFoot  -5.13105 0.41768 -6.02148
RightToes  -1.74624e-010 -1.59028e-015 9.93923e-017
Spine  -1.48334 -4.21499 -5.88192
Spine1  8.34603 -7.53426 13.1347
HEad  -28.8419 -1.89713 2.61204
LeftShoulder1  9.93923e-017 0 1.22299e-017
LeftArm  6.22942 -49.652 -54.6202
LeftForeArm  19.9984 -1.64357 -4.89441
LeftHand  0.944071 4.46281 -13.6828
RightShoulder  1.98785e-016 -4.96962e-017 1.55301e-017
RightArm  -23.7053 -27.1992 76.1341
RightForeArm  -3.21117 1.16365 5.80826
RightHand  2.7788 -21.2551 -5.87187
LeftUpLeg  5.18024 -2.6391 8.76209
LeftLeg  57.6228 -12.7585 -1.80271
LeftFoot  1.15078 1.19103 -9.08948
LeftToes  4.87492e-010 -9.21916e-011 1.24689e-011
48
root  -11.9001 36.5551 -2.29057 145.247 83.6158 158.769
RightUpLeg  -15.8086 1.94294 2.06709
RightLeg  28.8561 -9.59143 -11.3164
RightFoot  -5.35914 0.36957 -5.46375
RightToes  -1.74624e-010 -1.59028e-015 9.93923e-017
Spine  -1.50772 -3.01429 -7.96726
Spine1  6.99244 -6.67068 13.7883
HEad  -26.0106 -1.82157 1.91716
LeftShoulder1  9.93923e-017 0 1.22299e-017
LeftArm  -2.52733 -49.9525 -48.2794
LeftForeArm  19.155 -0.725612 -1.47373
LeftHand  0.754742 4.73842 -4.82353
RightShoulder  1.98785e-016 -4.96962e-017 1.55301e-017
RightArm  -20.2619 -9.88508 77.2454
RightForeArm  -3.01539 1.08433 5.76767
RightHand  2.80869 -20.969 -6.41843
LeftUpLeg  1.14775 0.476457 7.04049
LeftLeg  53.6309 -9.34704 3.43148
LeftFoot  -5.58859 0.430848 -6.78714
LeftToes  4.87492e-010 -9.21916e-011 1.24689e-011
49
root  -10.4309 37.2486 -2.5083 104.605 84.1657 119.491
RightUpLeg  -12.3126 2.19882 0.022068
RightLeg  28.9927 -11.0261 -12.1738
RightFoot  -2.51976 0.52042 -5.60403
RightToes  -1.74624e-010 -1.59028e-015 9.93923e-017
Spine  -0.912311 -1.35896 -5.6611
Spine1  6.39652 -4.47483 10.7054
HEad  -24.1376 -1.70397 1.8962
LeftShoulder1  9.93923e-017 0 1.22299e-017
LeftArm  -5.09029 -49.5339 -41.0093
LeftForeArm  20.2823 -0.451128 -0.250132
LeftHand  0.517197 4.38093 4.12091
RightShoulder  1.98785e-016 -4.96962e-017 1.55301e-017
RightArm  -14.1987 7.74248 78.9079
RightForeArm  -1.6441 1.3021 5.49264
RightHand  2.87323 -21.017 -6.84522
LeftUpLeg  -1.97762 4.83926 4.79977
LeftLeg  44.9387 -6.15274 5.56488
LeftFoot  -9.12476 0.283032 -8.253
LeftToes  4.87492e-010 -9.21916e-011 1.24689e-011
50
root  -9.19248 37.8107 -2.88609 64.4094 82.6433 80.1077
RightUpLeg  -9.86358 1.83196 -1.30493
RightLeg  27.1779 -17.5154 -14.406
RightFoot  -1.35894 0.614221 -5.97053
RightToes  -1.74624e-010 -1.59028e-015 9.93923e-017
Spine  0.961946 0.447669 0.549541
Spine1  6.16561 -1.49569 4.9367
HEad  -23.1283 -1.37074 2.37201
LeftShoulder1  9.93923e-017 0 1.22299e-017
LeftArm  -4.1626 -48.0333 -33.0326
LeftForeArm  22.0094 -0.695497 -0.896013
LeftHand  0.448994 4.62533 9.09453
RightShoulder  1.98785e-016 -4.96962e-017 1.55301e-017
RightArm  -5.63721 25.2004 79.1715
RightForeArm  -1.09319 3.36851 3.90062
RightHand  2.8813 -21.0946 -6.81323
LeftUpLeg  -4.52177 6.33917 2.66739
LeftLeg  33.8699 -0.909287 6.82813
LeftFoot  -9.99336 0.28222 -10.3417
LeftToes  4.87492e-010 -9.21916e-011 1.24689e-011
51
root  -8.07374 38.1409 -3.29074 42.9804 79.3895 58.4817
RightUpLeg  -8.69095 1.48085 -2.16732
RightLeg  22.4637 -23.8441 -14.1078
RightFoot  -3.01562 0.58077 -6.58602
RightToes  -1.74624e-010 -1.59028e-015 9.93923e-017
Spine  3.6676 1.70157 6.77295
Spine1  5.83451 1.21744 -0.752356
HEad  -21.1149 -0.601165 2.60878
LeftShoulder1  9.93923e-017 0 1.22299e-017
LeftArm  -2.54798 -43.7482 -24.8906
LeftForeArm  20.971 -1.00062 -1.9879
LeftHand  0.6138 5.25959 6.7204
RightShoulder  1.98785e-016 -4.96962e-017 1.55301e-017
RightArm  11.8758 40.5348 83.1288
RightForeArm  -4.29165 8.50918 0.268533
RightHand  2.83601 -21.1475 -6.41353
LeftUpLeg  -7.78982 3.31906 1.29101
LeftLeg  23.0301 7.2925 7.99899
LeftFoot  -11.1712 0.165401 -10.0338
LeftToes  4.87492e-010 -9.21916e-011 1.24689e-011
52
root  -7.05929 38.0036 -3.69459 32.5528 75.9472 47.331
RightUpLeg  -10.1727 2.93348 -2.38478
RightLeg  20.2732 -24.0352 -12.6741
RightFoot  -5.1143 0.501741 -7.16759
RightToes  -1.74624e-010 -1.59028e-015 9.93923e-017
Spine  8.2243 1.84709 11.389
Spine1  4.44343 3.12254 -5.00046
HEad  -18.3915 0.442121 2.62749
LeftShoulder1  9.93923e-017 0 1.22299e-017
LeftArm  -2.49394 -36.624 -15.8884
LeftForeArm  17.8028 -0.8693 -1.82256
LeftHand  0.816714 5.69453 -1.77482
RightShoulder  1.98785e-016 -4.96962e-017 1.55301e-017
RightArm  40.8631 57.0927 88.7456
RightForeArm  -17.0029 15.2987 -8.32717
RightHand  2.86735 -21.1957 -6.5891
LeftUpLeg  -11.902 0.0316852 1.36894
LeftLeg  14.7026 12.0974 8.17292
LeftFoot  -13.0118 -0.00547406 -9.91805
LeftToes  4.87492e-010 -9.21916e-011 1.24689e-011
53
root  -6.18974 37.4848 -4.07746 27.57 73.158 42.1909
RightUpLeg  -13.6829 5.05683 -2.71917
RightLeg  24.6629 -18.9666 -13.5225
RightFoot  -7.06913 0.364749 -6.91724
RightToes  -1.74624e-010 -1.59028e-015 9.93923e-017
Spine  14.8153 0.771084 12.9954
Spine1  2.56589 3.63924 -7.45272
HEad  -16.865 1.26705 2.25752
LeftShoulder1  9.93923e-017 0 1.22299e-017
LeftArm  -3.49827 -27.3977 -5.69063
LeftForeArm  11.621 -0.365796 -0.617565
LeftHand  0.935034 5.75392 -9.83524
RightShoulder  1.98785e-016 -4.96962e-017 1.55301e-017
RightArm  62.9345 73.3261 91.223
RightForeArm  -29.5349 19.8599 -20.2595
RightHand  3.06146 -20.5864 -8.85883
LeftUpLeg  -16.3369 -0.219448 2.40289
LeftLeg  11.1138 10.7554 7.44012
LeftFoot  -14.9548 -0.188787 -10.7881
LeftToes  4.87492e-010 -9.21916e-011 1.24689e-011
